<svg xmlns="http://www.w3.org/2000/svg" viewBox="0 0 369.93 194.56">
    <defs>
        <style>.cls-1{fill:#0c1c49;}.cls-2{fill:none;}.cls-3{fill:#009fe3;}</style>
    </defs>
    <title>Fichier 1</title>
    <g id="Calque_2" data-name="Calque 2">
        <g id="Calque_1-2" data-name="Calque 1">
            <path class="cls-1" d="M78,44H68L43.53,102.78H57.38l4.79-11.43H83.89l4.79,11.43h13.84ZM66,80.2l7-18.33h0L80,80.2Z"/>
            <path class="cls-1" d="M256.68,62.37c-4.89-4.29-12.62-4.09-16.3-2.82A16.93,16.93,0,0,0,234,63.3l-.53-3.52h-12v43h13.14V73.12a20.65,20.65,0,0,1,3.56-2.51,8,8,0,0,1,7.44-.18c2.3,1.29,3.36,4.32,3.36,8v24.39h13.14V77.53C262.12,68.27,258.71,64.15,256.68,62.37Z"/>
            <path class="cls-1" d="M116.39,59.77H104.32v43h13.14V73a14.17,14.17,0,0,1,3.48-2.41c1.47-.71,5.1-2,7.73.21,2,1.71,2.12,5.74,2.12,6.88v25.08h13V77a29.55,29.55,0,0,0-.43-4.67,24.52,24.52,0,0,1,3.86-2c3-1.33,6.4-.67,7.52.11,2.41,1.68,2.65,5.49,2.65,7.22v25.08h13V77.2c0-4.7-.66-10.62-4.88-14.44s-10.8-4-12.17-4a27.77,27.77,0,0,0-14.19,4.45c-2.91-3-10.05-5.74-15.92-3.68a17,17,0,0,0-6.38,3.75Z"/>
            <path class="cls-1" d="M215.72,59.77H202.58V89.56a22.79,22.79,0,0,1-3.43,2.14,10.18,10.18,0,0,1-7.35.43c-3-1.14-3.41-6-3.41-8.05V59.77H175.26V85.2c0,4.77.85,10,4.13,13.64s8.56,5.11,13.42,4.77a16.84,16.84,0,0,0,6.44-1.79,14.55,14.55,0,0,0,3.87-2.72l.56,3.69h12v-43"/>
            <path class="cls-1" d="M293.1,44V59.62a25.56,25.56,0,0,0-6.5-.86c-8.43,0-13,4-15,5.91a22.84,22.84,0,0,0-6.37,15.89c-.07,14.13,7.65,19.73,11.49,21.49a17.61,17.61,0,0,0,8.27,1.64,15.33,15.33,0,0,0,8.75-3.51l.39,2.61h12V44Zm0,45.78a7.4,7.4,0,0,1-3.2,2.25c-4.54,1.86-10.34-.23-11.56-8a15.26,15.26,0,0,1,.63-8.15,9.39,9.39,0,0,1,9.18-6.25,15.47,15.47,0,0,1,5,.89Z"/>
            <path class="cls-1" d="M327,50c0,3.68-2.58,7-7.63,7s-7.63-3.35-7.63-7,2.84-7,7.63-7S327,46.37,327,50Z"/>
            <rect class="cls-1" x="312.84" y="59.77" width="13.05" height="43.01"/>
            <rect class="cls-1" x="44.04" y="113.85" width="281.86" height="11.07"/>
            <rect class="cls-2" width="369.93" height="194.56"/>
            <path class="cls-3" d="M103.1,150.52,108.74,136h3.64l5.68,14.55h-4.18l-.94-2.5h-4.88l-1,2.5Zm5.81-5.47h3.14l-1.57-4.42Z"/>
            <path class="cls-3" d="M145.72,150.52V136h10.35v3.33h-6.45v2.4h5.25v3.07h-5.25v2.37h6.9v3.35Z"/>
            <path class="cls-3" d="M161.73,150.52V139.33h-4.07V136h12v3.33h-4v11.19Z"/>
            <path class="cls-3" d="M176,150.52V136h4l3.62,8.65L187,136h4v14.53h-3.77v-7.1l-2.9,7.19h-1.59l-3-7.23v7.14Z"/>
            <path class="cls-3" d="M192.83,150.52,198.47,136h3.64l5.68,14.55h-4.18l-.94-2.5H197.8l-1,2.5Zm5.81-5.47h3.14l-1.57-4.42Z"/>
            <path class="cls-3" d="M209.58,150.52V136h3.94l4.73,7.69V136h3.83v14.53h-3.55l-5.14-8.21v8.21Z"/>
            <path class="cls-3" d="M223.86,150.52,229.51,136h3.64l5.68,14.55h-4.18l-.94-2.5h-4.88l-1,2.5Zm5.82-5.47h3.14l-1.57-4.42Z"/>
            <path class="cls-3" d="M254.64,150.52V136H265v3.33h-6.45v2.4h5.25v3.07h-5.25v2.37h6.9v3.35Z"/>
            <path class="cls-3" d="M267.88,150.52V136h4l3.62,8.65,3.42-8.65h4v14.53h-3.77v-7.1l-2.9,7.19H274.7l-3-7.23v7.14Z"/>
            <path class="cls-3" d="M286.19,150.52V136h10.35v3.33h-6.45v2.4h5.25v3.07h-5.25v2.37H297v3.35Z"/>
            <path class="cls-3" d="M299.44,150.52V136h3.94l4.73,7.69V136h3.83v14.53h-3.55l-5.14-8.21v8.21Z"/>
            <path class="cls-3" d="M317.95,150.52V139.33h-4.07V136h12v3.33h-4v11.19Z"/>
            <path class="cls-3" d="M121.77,146.19a4.41,4.41,0,0,0,1.3,1.08,3.76,3.76,0,0,0,2,.47c.55,0,1.35-.13,1.64-.66a1.18,1.18,0,0,0-.48-1.55,7.75,7.75,0,0,0-1.72-.71,11.13,11.13,0,0,1-3.86-1.73,3.94,3.94,0,0,1-1.22-3.75c.36-2.06,2.24-3.22,4.18-3.51a7.22,7.22,0,0,1,6,1.49,5.56,5.56,0,0,1,.78.92l-2.61,2a4.59,4.59,0,0,0-.44-.54,3.37,3.37,0,0,0-1.75-1,2.91,2.91,0,0,0-1.91.18,1,1,0,0,0-.35,1.46,3.5,3.5,0,0,0,1.62.88,15.09,15.09,0,0,1,4,1.6,4.09,4.09,0,0,1,1.72,3.41c.06,4.55-5.91,5.47-9.18,3.85a6.27,6.27,0,0,1-2.3-1.84l2.68-2.07"/>
            <path class="cls-3" d="M134.49,146.19a4.4,4.4,0,0,0,1.3,1.08,3.75,3.75,0,0,0,2,.47c.55,0,1.35-.12,1.64-.66a1.18,1.18,0,0,0-.48-1.55,7.75,7.75,0,0,0-1.72-.71,11.13,11.13,0,0,1-3.86-1.73,3.94,3.94,0,0,1-1.22-3.75c.36-2.06,2.24-3.22,4.18-3.51a7.22,7.22,0,0,1,6,1.49,5.55,5.55,0,0,1,.78.91l-2.61,2a4.51,4.51,0,0,0-.44-.54,3.36,3.36,0,0,0-1.75-1,2.9,2.9,0,0,0-1.91.18,1,1,0,0,0-.35,1.46,3.49,3.49,0,0,0,1.62.88,15.06,15.06,0,0,1,4,1.6,4.09,4.09,0,0,1,1.72,3.41c.06,4.55-5.91,5.47-9.18,3.85a6.27,6.27,0,0,1-2.3-1.84l2.68-2.07"/>
            <path class="cls-3" d="M246.11,145.46v-2.88h5.72V150a16.05,16.05,0,0,1-4.7.88c-2.57.16-4.85-.44-6.4-2.48a8,8,0,0,1-1.45-4.43,9.58,9.58,0,0,1,.87-4.78,6.15,6.15,0,0,1,4.84-3.38c2.1-.26,4.48.17,5.87,1.89a6.52,6.52,0,0,1,.85,1.39l-3.25,1.66a3.82,3.82,0,0,0-.93-1.29,2.4,2.4,0,0,0-3.09.22,4.41,4.41,0,0,0-1.15,3c-.24,3.71,1.58,4.61,2.19,4.86a5.73,5.73,0,0,0,2.72.1v-2.12h-2.07"/>
        </g>
    </g>
</svg>